<svg xmlns="http://www.w3.org/2000/svg" viewBox="0 0 128 128" role="img" aria-label="Codex confession fault seal">
  <defs>
    <radialGradient id="bg" cx="50%" cy="42%" r="72%">
      <stop offset="0" stop-color="#101522"/>
      <stop offset="0.62" stop-color="#030407"/>
      <stop offset="1" stop-color="#000"/>
    </radialGradient>
    <filter id="glitch">
      <feTurbulence type="fractalNoise" baseFrequency="0.9" numOctaves="2" seed="526"/>
      <feDisplacementMap in="SourceGraphic" scale="2.2"/>
    </filter>
  </defs>
  <rect width="128" height="128" rx="20" fill="url(#bg)"/>
  <path d="M20 26h88v76H20z" fill="none" stroke="#8fe4ff" stroke-width="2" opacity=".42"/>
  <path d="M24 31h80M24 42h80M24 53h80M24 64h80M24 75h80M24 86h80M24 97h80" stroke="#8fe4ff" stroke-width="1" opacity=".12"/>
  <path d="M64 18l7 23 24 2-19 14 6 24-18-13-19 13 7-24-19-14 24-2z" fill="#f5fbff" filter="url(#glitch)"/>
  <path d="M66 18l7 23 24 2-19 14 6 24-18-13-19 13 7-24-19-14 24-2z" fill="#ff315f" opacity=".72" style="mix-blend-mode:screen"/>
  <path d="M60 18l7 23 24 2-19 14 6 24-18-13-19 13 7-24-19-14 24-2z" fill="#8fe4ff" opacity=".72" style="mix-blend-mode:screen"/>
  <circle cx="64" cy="58" r="9" fill="#020308" stroke="#ff315f" stroke-width="3"/>
  <path d="M31 111h66" stroke="#ff315f" stroke-width="3" stroke-linecap="round"/>
  <path d="M37 112h54" stroke="#8fe4ff" stroke-width="1.5" stroke-linecap="round"/>
</svg>
